<mxfile host="app.diagrams.net" agent="Mozilla/5.0 (X11; Linux x86_64) AppleWebKit/537.36 (KHTML, like Gecko) Chrome/138.0.0.0 Safari/537.36" version="28.0.4">
  <diagram name="Page-1" id="do4UNG8VSl-iJ9QHqraf">
    <mxGraphModel dx="1088" dy="643" grid="1" gridSize="10" guides="1" tooltips="1" connect="1" arrows="1" fold="1" page="1" pageScale="1" pageWidth="850" pageHeight="1100" math="0" shadow="0">
      <root>
        <mxCell id="0" />
        <mxCell id="1" parent="0" />
        <mxCell id="ys1V8lBMiT9IMGqYGI88-1" value="7" style="ellipse;whiteSpace=wrap;html=1;aspect=fixed;" vertex="1" parent="1">
          <mxGeometry x="480" y="210" width="80" height="80" as="geometry" />
        </mxCell>
        <mxCell id="ys1V8lBMiT9IMGqYGI88-2" value="5" style="ellipse;whiteSpace=wrap;html=1;aspect=fixed;" vertex="1" parent="1">
          <mxGeometry x="320" y="330" width="80" height="80" as="geometry" />
        </mxCell>
        <mxCell id="ys1V8lBMiT9IMGqYGI88-4" value="3" style="ellipse;whiteSpace=wrap;html=1;aspect=fixed;" vertex="1" parent="1">
          <mxGeometry x="190" y="440" width="80" height="80" as="geometry" />
        </mxCell>
        <mxCell id="ys1V8lBMiT9IMGqYGI88-5" value="6" style="ellipse;whiteSpace=wrap;html=1;aspect=fixed;" vertex="1" parent="1">
          <mxGeometry x="440" y="440" width="80" height="80" as="geometry" />
        </mxCell>
        <mxCell id="ys1V8lBMiT9IMGqYGI88-6" value="10" style="ellipse;whiteSpace=wrap;html=1;aspect=fixed;" vertex="1" parent="1">
          <mxGeometry x="720" y="330" width="80" height="80" as="geometry" />
        </mxCell>
        <mxCell id="ys1V8lBMiT9IMGqYGI88-7" value="9" style="ellipse;whiteSpace=wrap;html=1;aspect=fixed;" vertex="1" parent="1">
          <mxGeometry x="590" y="440" width="80" height="80" as="geometry" />
        </mxCell>
        <mxCell id="ys1V8lBMiT9IMGqYGI88-8" value="11" style="ellipse;whiteSpace=wrap;html=1;aspect=fixed;" vertex="1" parent="1">
          <mxGeometry x="840" y="440" width="80" height="80" as="geometry" />
        </mxCell>
        <mxCell id="ys1V8lBMiT9IMGqYGI88-9" value="" style="endArrow=none;html=1;rounded=0;entryX=0;entryY=1;entryDx=0;entryDy=0;exitX=1;exitY=0;exitDx=0;exitDy=0;" edge="1" parent="1" source="ys1V8lBMiT9IMGqYGI88-2" target="ys1V8lBMiT9IMGqYGI88-1">
          <mxGeometry width="50" height="50" relative="1" as="geometry">
            <mxPoint x="440" y="330" as="sourcePoint" />
            <mxPoint x="490" y="280" as="targetPoint" />
          </mxGeometry>
        </mxCell>
        <mxCell id="ys1V8lBMiT9IMGqYGI88-10" value="" style="endArrow=none;html=1;rounded=0;entryX=0;entryY=0;entryDx=0;entryDy=0;exitX=1;exitY=1;exitDx=0;exitDy=0;" edge="1" parent="1" source="ys1V8lBMiT9IMGqYGI88-1" target="ys1V8lBMiT9IMGqYGI88-6">
          <mxGeometry width="50" height="50" relative="1" as="geometry">
            <mxPoint x="490" y="374" as="sourcePoint" />
            <mxPoint x="594" y="310" as="targetPoint" />
          </mxGeometry>
        </mxCell>
        <mxCell id="ys1V8lBMiT9IMGqYGI88-11" value="" style="endArrow=none;html=1;rounded=0;exitX=0.5;exitY=0;exitDx=0;exitDy=0;entryX=0;entryY=1;entryDx=0;entryDy=0;" edge="1" parent="1" source="ys1V8lBMiT9IMGqYGI88-7" target="ys1V8lBMiT9IMGqYGI88-6">
          <mxGeometry width="50" height="50" relative="1" as="geometry">
            <mxPoint x="670" y="390" as="sourcePoint" />
            <mxPoint x="720" y="340" as="targetPoint" />
          </mxGeometry>
        </mxCell>
        <mxCell id="ys1V8lBMiT9IMGqYGI88-12" value="" style="endArrow=none;html=1;rounded=0;exitX=0.5;exitY=0;exitDx=0;exitDy=0;entryX=1;entryY=1;entryDx=0;entryDy=0;" edge="1" parent="1" source="ys1V8lBMiT9IMGqYGI88-8" target="ys1V8lBMiT9IMGqYGI88-6">
          <mxGeometry width="50" height="50" relative="1" as="geometry">
            <mxPoint x="720" y="445.72" as="sourcePoint" />
            <mxPoint x="758.2842712474619" y="370.00427124746193" as="targetPoint" />
          </mxGeometry>
        </mxCell>
        <mxCell id="ys1V8lBMiT9IMGqYGI88-13" value="" style="endArrow=none;html=1;rounded=0;exitX=0.5;exitY=0;exitDx=0;exitDy=0;entryX=1;entryY=1;entryDx=0;entryDy=0;" edge="1" parent="1" source="ys1V8lBMiT9IMGqYGI88-5" target="ys1V8lBMiT9IMGqYGI88-2">
          <mxGeometry width="50" height="50" relative="1" as="geometry">
            <mxPoint x="470" y="424" as="sourcePoint" />
            <mxPoint x="494" y="370" as="targetPoint" />
          </mxGeometry>
        </mxCell>
        <mxCell id="ys1V8lBMiT9IMGqYGI88-14" value="" style="endArrow=none;html=1;rounded=0;exitX=0.5;exitY=0;exitDx=0;exitDy=0;entryX=0;entryY=1;entryDx=0;entryDy=0;" edge="1" parent="1" source="ys1V8lBMiT9IMGqYGI88-4" target="ys1V8lBMiT9IMGqYGI88-2">
          <mxGeometry width="50" height="50" relative="1" as="geometry">
            <mxPoint x="522" y="442" as="sourcePoint" />
            <mxPoint x="470" y="400" as="targetPoint" />
          </mxGeometry>
        </mxCell>
        <mxCell id="ys1V8lBMiT9IMGqYGI88-15" value="" style="rounded=0;whiteSpace=wrap;html=1;" vertex="1" parent="1">
          <mxGeometry x="5" width="50" height="390" as="geometry" />
        </mxCell>
        <mxCell id="ys1V8lBMiT9IMGqYGI88-16" value="Ancestry vector" style="text;html=1;align=center;verticalAlign=middle;whiteSpace=wrap;rounded=0;" vertex="1" parent="1">
          <mxGeometry width="60" height="30" as="geometry" />
        </mxCell>
        <mxCell id="ys1V8lBMiT9IMGqYGI88-17" value="&lt;font color=&quot;#ff0000&quot;&gt;&amp;amp;node 7&lt;/font&gt;" style="whiteSpace=wrap;html=1;aspect=fixed;" vertex="1" parent="1">
          <mxGeometry x="5" y="40" width="50" height="50" as="geometry" />
        </mxCell>
        <mxCell id="ys1V8lBMiT9IMGqYGI88-18" value="&lt;font style=&quot;color: light-dark(rgb(0, 0, 0), rgb(55, 255, 0));&quot;&gt;&amp;amp;node 5&lt;/font&gt;" style="whiteSpace=wrap;html=1;aspect=fixed;" vertex="1" parent="1">
          <mxGeometry x="5" y="90" width="50" height="50" as="geometry" />
        </mxCell>
        <mxCell id="ys1V8lBMiT9IMGqYGI88-19" value="&amp;amp;node 3" style="whiteSpace=wrap;html=1;aspect=fixed;" vertex="1" parent="1">
          <mxGeometry x="5" y="140" width="50" height="50" as="geometry" />
        </mxCell>
        <mxCell id="ys1V8lBMiT9IMGqYGI88-20" value="" style="whiteSpace=wrap;html=1;aspect=fixed;" vertex="1" parent="1">
          <mxGeometry x="5" y="190" width="50" height="50" as="geometry" />
        </mxCell>
        <mxCell id="ys1V8lBMiT9IMGqYGI88-21" value="" style="whiteSpace=wrap;html=1;aspect=fixed;direction=south;" vertex="1" parent="1">
          <mxGeometry x="5" y="240" width="50" height="50" as="geometry" />
        </mxCell>
        <mxCell id="ys1V8lBMiT9IMGqYGI88-22" value="" style="whiteSpace=wrap;html=1;aspect=fixed;" vertex="1" parent="1">
          <mxGeometry x="5" y="290" width="50" height="50" as="geometry" />
        </mxCell>
        <mxCell id="ys1V8lBMiT9IMGqYGI88-23" value="" style="whiteSpace=wrap;html=1;aspect=fixed;" vertex="1" parent="1">
          <mxGeometry x="5" y="340" width="50" height="50" as="geometry" />
        </mxCell>
        <mxCell id="ys1V8lBMiT9IMGqYGI88-26" value="" style="curved=1;endArrow=classic;html=1;rounded=0;entryX=0.5;entryY=0;entryDx=0;entryDy=0;fillColor=#a20025;strokeColor=light-dark(#6F0000,#FA0000);startSize=17;" edge="1" parent="1" source="ys1V8lBMiT9IMGqYGI88-1" target="ys1V8lBMiT9IMGqYGI88-2">
          <mxGeometry width="50" height="50" relative="1" as="geometry">
            <mxPoint x="380" y="190" as="sourcePoint" />
            <mxPoint x="340" y="320" as="targetPoint" />
            <Array as="points">
              <mxPoint x="430" y="210" />
              <mxPoint x="370" y="260" />
            </Array>
          </mxGeometry>
        </mxCell>
        <mxCell id="ys1V8lBMiT9IMGqYGI88-27" value="&lt;font style=&quot;font-size: 24px;&quot;&gt;&lt;b style=&quot;&quot;&gt;vertical_next&lt;/b&gt;&lt;/font&gt;" style="text;html=1;align=center;verticalAlign=middle;whiteSpace=wrap;rounded=0;" vertex="1" parent="1">
          <mxGeometry x="340" y="180" width="60" height="30" as="geometry" />
        </mxCell>
        <mxCell id="ys1V8lBMiT9IMGqYGI88-32" value="" style="curved=1;endArrow=classic;html=1;rounded=0;entryX=0;entryY=0;entryDx=0;entryDy=0;fillColor=#008a00;strokeColor=light-dark(#005700,#27CD10);startSize=17;exitX=0;exitY=0.5;exitDx=0;exitDy=0;" edge="1" parent="1" source="ys1V8lBMiT9IMGqYGI88-2" target="ys1V8lBMiT9IMGqYGI88-4">
          <mxGeometry width="50" height="50" relative="1" as="geometry">
            <mxPoint x="320" y="334" as="sourcePoint" />
            <mxPoint x="197" y="430" as="targetPoint" />
            <Array as="points">
              <mxPoint x="160" y="380" />
            </Array>
          </mxGeometry>
        </mxCell>
        <mxCell id="ys1V8lBMiT9IMGqYGI88-33" value="&lt;font style=&quot;font-size: 24px;&quot;&gt;&lt;b style=&quot;&quot;&gt;vertical_next&lt;/b&gt;&lt;/font&gt;" style="text;html=1;align=center;verticalAlign=middle;whiteSpace=wrap;rounded=0;" vertex="1" parent="1">
          <mxGeometry x="140" y="355" width="60" height="30" as="geometry" />
        </mxCell>
        <mxCell id="ys1V8lBMiT9IMGqYGI88-34" value="&lt;font style=&quot;font-size: 24px;&quot;&gt;&lt;b style=&quot;&quot;&gt;horizontal_next&lt;/b&gt;&lt;/font&gt;" style="text;html=1;align=center;verticalAlign=middle;whiteSpace=wrap;rounded=0;" vertex="1" parent="1">
          <mxGeometry x="300" y="600" width="60" height="30" as="geometry" />
        </mxCell>
        <mxCell id="ys1V8lBMiT9IMGqYGI88-35" value="&lt;h1 style=&quot;margin-top: 0px;&quot;&gt;DFS iteration&lt;/h1&gt;&lt;p&gt;prioritize vertical over horizontal&lt;/p&gt;" style="text;html=1;whiteSpace=wrap;overflow=hidden;rounded=0;" vertex="1" parent="1">
          <mxGeometry x="470" y="30" width="180" height="120" as="geometry" />
        </mxCell>
        <mxCell id="ys1V8lBMiT9IMGqYGI88-37" value="2" style="ellipse;whiteSpace=wrap;html=1;aspect=fixed;" vertex="1" parent="1">
          <mxGeometry x="55" y="550" width="80" height="80" as="geometry" />
        </mxCell>
        <mxCell id="ys1V8lBMiT9IMGqYGI88-38" value="" style="endArrow=none;html=1;rounded=0;exitX=0.5;exitY=0;exitDx=0;exitDy=0;entryX=0;entryY=1;entryDx=0;entryDy=0;" edge="1" parent="1" source="ys1V8lBMiT9IMGqYGI88-37" target="ys1V8lBMiT9IMGqYGI88-4">
          <mxGeometry width="50" height="50" relative="1" as="geometry">
            <mxPoint x="310" y="462" as="sourcePoint" />
            <mxPoint x="412" y="420" as="targetPoint" />
          </mxGeometry>
        </mxCell>
        <mxCell id="ys1V8lBMiT9IMGqYGI88-39" value="" style="curved=1;endArrow=classic;html=1;rounded=0;entryX=0;entryY=0;entryDx=0;entryDy=0;fillColor=#0050ef;strokeColor=#001DBC;startSize=17;exitX=0;exitY=0.5;exitDx=0;exitDy=0;" edge="1" parent="1" source="ys1V8lBMiT9IMGqYGI88-4" target="ys1V8lBMiT9IMGqYGI88-37">
          <mxGeometry width="50" height="50" relative="1" as="geometry">
            <mxPoint x="178" y="468" as="sourcePoint" />
            <mxPoint x="60" y="550" as="targetPoint" />
            <Array as="points">
              <mxPoint x="30" y="470" />
            </Array>
          </mxGeometry>
        </mxCell>
        <mxCell id="ys1V8lBMiT9IMGqYGI88-40" value="&lt;font style=&quot;font-size: 24px;&quot;&gt;&lt;b style=&quot;&quot;&gt;vertical_next&lt;/b&gt;&lt;/font&gt;" style="text;html=1;align=center;verticalAlign=middle;whiteSpace=wrap;rounded=0;" vertex="1" parent="1">
          <mxGeometry x="65" y="450" width="60" height="30" as="geometry" />
        </mxCell>
        <mxCell id="ys1V8lBMiT9IMGqYGI88-44" value="" style="curved=1;endArrow=classic;html=1;rounded=0;entryX=0.675;entryY=0.97;entryDx=0;entryDy=0;fillColor=#6a00ff;strokeColor=light-dark(#3700CC, #4400ff);startSize=17;exitX=0.92;exitY=0.781;exitDx=0;exitDy=0;exitPerimeter=0;entryPerimeter=0;" edge="1" parent="1" source="ys1V8lBMiT9IMGqYGI88-37" target="ys1V8lBMiT9IMGqYGI88-4">
          <mxGeometry width="50" height="50" relative="1" as="geometry">
            <mxPoint x="155.2163357126858" y="621.3390192646993" as="sourcePoint" />
            <mxPoint x="270" y="682" as="targetPoint" />
            <Array as="points">
              <mxPoint x="233" y="590" />
            </Array>
          </mxGeometry>
        </mxCell>
      </root>
    </mxGraphModel>
  </diagram>
</mxfile>
